<svg width="37" height="36" viewBox="0 0 37 36" fill="none" xmlns="http://www.w3.org/2000/svg">
<rect x="1.5" y="1" width="34" height="34" rx="17" stroke="#69727D" stroke-width="2"/>
<path d="M23.1078 18.707C23.1078 18.7773 23.0023 20.8516 25.2875 21.9414C24.8656 23.2422 23.3891 26.125 21.6664 26.125C20.682 26.125 20.1195 25.4922 18.9945 25.4922C17.8344 25.4922 17.2016 26.125 16.3227 26.125C14.6352 26.1953 13.018 23.0312 12.5609 21.7305C12.2094 20.7461 12.0687 19.7969 12.0687 18.8828C12.0687 15.7539 14.143 14.2422 16.1117 14.207C17.0609 14.207 18.2562 14.875 18.7836 14.875C19.2758 14.875 20.6469 14.0664 21.9125 14.1719C23.2133 14.2773 24.1977 14.7695 24.8656 15.7188C23.7055 16.457 23.1078 17.4062 23.1078 18.707ZM21.1391 12.9414C20.4359 13.75 19.5922 14.207 18.6781 14.1367C18.6078 13.1875 18.9594 12.3086 19.5922 11.6055C20.1547 10.9727 21.1391 10.4453 21.9828 10.375C21.9828 10.7617 22.0883 11.8164 21.1391 12.9414Z" fill="white"/>
</svg>
