<svg width="37" height="36" viewBox="0 0 37 36" fill="none" xmlns="http://www.w3.org/2000/svg">
<rect x="1.5" y="1" width="34" height="34" rx="17" stroke="#69727D" stroke-width="2"/>
<path d="M18.698 14.207C20.9129 14.207 22.741 16.0352 22.741 18.25C22.741 20.5 20.9129 22.293 18.698 22.293C16.448 22.293 14.6551 20.5 14.6551 18.25C14.6551 16.0352 16.448 14.207 18.698 14.207ZM18.698 20.8867C20.1395 20.8867 21.2996 19.7266 21.2996 18.25C21.2996 16.8086 20.1395 15.6484 18.698 15.6484C17.2215 15.6484 16.0613 16.8086 16.0613 18.25C16.0613 19.7266 17.2566 20.8867 18.698 20.8867ZM23.8309 14.0664C23.8309 14.5938 23.409 15.0156 22.8816 15.0156C22.3543 15.0156 21.9324 14.5938 21.9324 14.0664C21.9324 13.5391 22.3543 13.1172 22.8816 13.1172C23.409 13.1172 23.8309 13.5391 23.8309 14.0664ZM26.5027 15.0156C26.573 16.3164 26.573 20.2188 26.5027 21.5195C26.4324 22.7852 26.1512 23.875 25.2371 24.8242C24.323 25.7383 23.198 26.0195 21.9324 26.0898C20.6316 26.1602 16.7293 26.1602 15.4285 26.0898C14.1629 26.0195 13.073 25.7383 12.1238 24.8242C11.2098 23.875 10.9285 22.7852 10.8582 21.5195C10.7879 20.2188 10.7879 16.3164 10.8582 15.0156C10.9285 13.75 11.2098 12.625 12.1238 11.7109C13.073 10.7969 14.1629 10.5156 15.4285 10.4453C16.7293 10.375 20.6316 10.375 21.9324 10.4453C23.198 10.5156 24.323 10.7969 25.2371 11.7109C26.1512 12.625 26.4324 13.75 26.5027 15.0156ZM24.8152 22.8906C25.2371 21.8711 25.1316 19.4102 25.1316 18.25C25.1316 17.125 25.2371 14.6641 24.8152 13.6094C24.534 12.9414 24.0066 12.3789 23.3387 12.1328C22.284 11.7109 19.823 11.8164 18.698 11.8164C17.5379 11.8164 15.077 11.7109 14.0574 12.1328C13.3543 12.4141 12.827 12.9414 12.5457 13.6094C12.1238 14.6641 12.2293 17.125 12.2293 18.25C12.2293 19.4102 12.1238 21.8711 12.5457 22.8906C12.827 23.5938 13.3543 24.1211 14.0574 24.4023C15.077 24.8242 17.5379 24.7188 18.698 24.7188C19.823 24.7188 22.284 24.8242 23.3387 24.4023C24.0066 24.1211 24.5691 23.5938 24.8152 22.8906Z" fill="white"/>
</svg>
