<svg width="201" height="99" viewBox="0 0 201 99" fill="none" xmlns="http://www.w3.org/2000/svg">
<path d="M122.557 70.2727C122.557 72.1761 122.196 73.7955 121.474 75.1307C120.759 76.4659 119.781 77.4858 118.543 78.1903C117.31 78.8892 115.923 79.2386 114.384 79.2386C112.832 79.2386 111.44 78.8864 110.207 78.1818C108.974 77.4773 108 76.4574 107.284 75.1222C106.568 73.7869 106.21 72.1705 106.21 70.2727C106.21 68.3693 106.568 66.75 107.284 65.4148C108 64.0795 108.974 63.0625 110.207 62.3636C111.44 61.6591 112.832 61.3068 114.384 61.3068C115.923 61.3068 117.31 61.6591 118.543 62.3636C119.781 63.0625 120.759 64.0795 121.474 65.4148C122.196 66.75 122.557 68.3693 122.557 70.2727ZM118.815 70.2727C118.815 69.0398 118.631 68 118.261 67.1534C117.898 66.3068 117.384 65.6648 116.719 65.2273C116.054 64.7898 115.276 64.571 114.384 64.571C113.491 64.571 112.713 64.7898 112.048 65.2273C111.384 65.6648 110.866 66.3068 110.497 67.1534C110.134 68 109.952 69.0398 109.952 70.2727C109.952 71.5057 110.134 72.5455 110.497 73.392C110.866 74.2386 111.384 74.8807 112.048 75.3182C112.713 75.7557 113.491 75.9744 114.384 75.9744C115.276 75.9744 116.054 75.7557 116.719 75.3182C117.384 74.8807 117.898 74.2386 118.261 73.392C118.631 72.5455 118.815 71.5057 118.815 70.2727ZM128.512 75.233L128.521 70.8778H129.049L133.242 65.9091H137.41L131.776 72.4886H130.915L128.512 75.233ZM125.222 79V61.5455H128.853V79H125.222ZM133.404 79L129.552 73.2983L131.972 70.733L137.657 79H133.404ZM144.618 79.2557C143.271 79.2557 142.112 78.983 141.141 78.4375C140.175 77.8864 139.43 77.108 138.908 76.1023C138.385 75.0909 138.124 73.8949 138.124 72.5142C138.124 71.1676 138.385 69.9858 138.908 68.9688C139.43 67.9517 140.166 67.1591 141.115 66.5909C142.07 66.0227 143.189 65.7386 144.473 65.7386C145.337 65.7386 146.141 65.8778 146.885 66.1562C147.635 66.429 148.288 66.8409 148.845 67.392C149.408 67.9432 149.845 68.6364 150.158 69.4716C150.47 70.3011 150.626 71.2727 150.626 72.3864V73.3835H139.572V71.1335H147.209C147.209 70.6108 147.095 70.1477 146.868 69.7443C146.641 69.3409 146.325 69.0256 145.922 68.7983C145.524 68.5653 145.061 68.4489 144.533 68.4489C143.982 68.4489 143.493 68.5767 143.067 68.8324C142.646 69.0824 142.317 69.4205 142.078 69.8466C141.839 70.267 141.717 70.7358 141.712 71.2528V73.392C141.712 74.0398 141.831 74.5994 142.07 75.071C142.314 75.5426 142.658 75.9062 143.101 76.1619C143.544 76.4176 144.07 76.5455 144.678 76.5455C145.081 76.5455 145.45 76.4886 145.786 76.375C146.121 76.2614 146.408 76.0909 146.646 75.8636C146.885 75.6364 147.067 75.358 147.192 75.0284L150.55 75.25C150.379 76.0568 150.03 76.7614 149.501 77.3636C148.979 77.9602 148.303 78.4261 147.473 78.7614C146.649 79.0909 145.697 79.2557 144.618 79.2557ZM156.626 61.5455V79H152.996V61.5455H156.626ZM165.501 79.2557C164.154 79.2557 162.995 78.983 162.023 78.4375C161.058 77.8864 160.313 77.108 159.79 76.1023C159.268 75.0909 159.006 73.8949 159.006 72.5142C159.006 71.1676 159.268 69.9858 159.79 68.9688C160.313 67.9517 161.049 67.1591 161.998 66.5909C162.952 66.0227 164.072 65.7386 165.356 65.7386C166.219 65.7386 167.023 65.8778 167.768 66.1562C168.518 66.429 169.171 66.8409 169.728 67.392C170.29 67.9432 170.728 68.6364 171.04 69.4716C171.353 70.3011 171.509 71.2727 171.509 72.3864V73.3835H160.455V71.1335H168.092C168.092 70.6108 167.978 70.1477 167.751 69.7443C167.523 69.3409 167.208 69.0256 166.805 68.7983C166.407 68.5653 165.944 68.4489 165.415 68.4489C164.864 68.4489 164.376 68.5767 163.95 68.8324C163.529 69.0824 163.2 69.4205 162.961 69.8466C162.722 70.267 162.6 70.7358 162.594 71.2528V73.392C162.594 74.0398 162.714 74.5994 162.952 75.071C163.197 75.5426 163.54 75.9062 163.984 76.1619C164.427 76.4176 164.952 76.5455 165.56 76.5455C165.964 76.5455 166.333 76.4886 166.668 76.375C167.004 76.2614 167.29 76.0909 167.529 75.8636C167.768 75.6364 167.95 75.358 168.075 75.0284L171.433 75.25C171.262 76.0568 170.913 76.7614 170.384 77.3636C169.862 77.9602 169.185 78.4261 168.356 78.7614C167.532 79.0909 166.58 79.2557 165.501 79.2557ZM175.768 83.9091C175.308 83.9091 174.876 83.8722 174.473 83.7983C174.075 83.7301 173.746 83.642 173.484 83.5341L174.303 80.8239C174.729 80.9545 175.112 81.0256 175.453 81.0369C175.8 81.0483 176.098 80.9688 176.348 80.7983C176.604 80.6278 176.811 80.3381 176.97 79.929L177.183 79.375L172.487 65.9091H176.305L179.016 75.5227H179.152L181.888 65.9091H185.732L180.643 80.4148C180.399 81.1193 180.067 81.733 179.646 82.2557C179.232 82.7841 178.706 83.1903 178.07 83.4744C177.433 83.7642 176.666 83.9091 175.768 83.9091ZM193.134 79.2557C191.787 79.2557 190.628 78.983 189.656 78.4375C188.69 77.8864 187.946 77.108 187.423 76.1023C186.901 75.0909 186.639 73.8949 186.639 72.5142C186.639 71.1676 186.901 69.9858 187.423 68.9688C187.946 67.9517 188.682 67.1591 189.631 66.5909C190.585 66.0227 191.705 65.7386 192.989 65.7386C193.852 65.7386 194.656 65.8778 195.401 66.1562C196.151 66.429 196.804 66.8409 197.361 67.392C197.923 67.9432 198.361 68.6364 198.673 69.4716C198.986 70.3011 199.142 71.2727 199.142 72.3864V73.3835H188.088V71.1335H195.724C195.724 70.6108 195.611 70.1477 195.384 69.7443C195.156 69.3409 194.841 69.0256 194.438 68.7983C194.04 68.5653 193.577 68.4489 193.048 68.4489C192.497 68.4489 192.009 68.5767 191.582 68.8324C191.162 69.0824 190.832 69.4205 190.594 69.8466C190.355 70.267 190.233 70.7358 190.227 71.2528V73.392C190.227 74.0398 190.347 74.5994 190.585 75.071C190.83 75.5426 191.173 75.9062 191.616 76.1619C192.06 76.4176 192.585 76.5455 193.193 76.5455C193.597 76.5455 193.966 76.4886 194.301 76.375C194.636 76.2614 194.923 76.0909 195.162 75.8636C195.401 75.6364 195.582 75.358 195.707 75.0284L199.065 75.25C198.895 76.0568 198.545 76.7614 198.017 77.3636C197.494 77.9602 196.818 78.4261 195.989 78.7614C195.165 79.0909 194.213 79.2557 193.134 79.2557Z" fill="white"/>
<path d="M56.5988 55.0412C56.6885 55.0412 56.6885 55.1309 56.5988 55.1309C56.24 55.3103 55.8812 55.3103 55.5224 55.3103C55.2533 55.2206 54.8945 55.1309 54.5358 55.1309C53.9079 54.9515 53.28 54.8618 52.5624 54.8618C52.2036 54.7721 51.8448 54.7721 51.4861 54.7721C50.1406 60.0642 48.5261 65.2667 46.5527 70.2897C44.5794 75.3127 42.2473 80.2461 39.4667 85C38.0315 87.3321 36.5067 89.5745 34.8024 91.7273C33.9055 92.8036 32.9188 93.7903 31.9321 94.777C31.663 94.9564 31.3939 95.2255 31.1248 95.4048C30.8558 95.6739 30.497 95.8533 30.2279 96.0327C29.8691 96.3018 29.6 96.4812 29.2412 96.6606C28.8824 96.7503 28.4339 96.9297 28.0752 96.9297C27.6267 97.0194 27.1782 97.0194 26.7297 96.9297C26.2812 96.84 25.9224 96.5709 25.5636 96.3018C25.2048 96.1224 24.9358 95.7636 24.6667 95.4945C24.4873 95.1358 24.3079 94.777 24.1285 94.5079C23.5006 93.1624 23.2315 91.7273 23.0521 90.3818C22.9624 88.9467 22.9624 87.6012 22.9624 86.2558C23.0521 84.8206 23.2315 83.4752 23.4109 82.1297C23.7697 79.5285 24.4873 77.017 25.2945 74.5055C24.8461 74.4158 24.4873 74.3261 24.0388 74.2364C23.5903 74.057 23.1418 73.7879 22.6933 73.5188C22.3345 73.2497 21.9758 72.8909 21.7067 72.4424C21.3479 72.0836 21.1685 71.6352 20.9891 71.1867C20.8097 70.8279 20.6303 70.3794 20.5406 69.9309C20.4509 69.4824 20.3612 69.0339 20.3612 68.5855C20.2715 67.7782 20.2715 66.8812 20.3612 66.0739C20.3612 65.2667 20.4509 64.4594 20.5406 63.6521C21.0788 60.3333 21.8861 57.2836 22.8727 54.2339C23.3212 52.7091 23.8594 51.1842 24.3079 49.6594C24.8461 48.1345 25.3842 46.6097 25.9224 45.1745C26.5503 43.6497 27.0885 42.2145 27.7164 40.6897C27.9855 39.9721 28.2545 39.2545 28.6133 38.537L29.5103 36.2945C30.1382 34.8594 30.6764 33.4242 31.1248 31.9891C31.3042 31.1818 31.4836 30.4642 31.5733 29.7467C31.663 29.3879 31.663 29.0291 31.663 28.6703C31.663 28.4012 31.663 28.0424 31.5733 27.863C31.4836 27.6836 31.4836 27.5939 31.3939 27.5042C31.3939 27.5042 31.3042 27.4145 31.2145 27.4145C31.0352 27.3248 30.7661 27.2351 30.497 27.3248C30.2279 27.3248 29.8691 27.4145 29.5103 27.5939C29.1515 27.6836 28.8824 27.863 28.5236 28.0424C27.8061 28.4012 27.1782 28.76 26.5503 29.2085C25.9224 29.657 25.2945 30.1055 24.6667 30.6436C24.1285 31.0921 23.5006 31.6303 22.8727 32.1685C22.3345 32.7067 21.7964 33.2448 21.1685 33.783C20.0921 34.8594 18.9261 36.0255 17.9394 37.1915C16.863 38.3576 15.7867 39.5236 14.8 40.6897C13.8133 41.9455 12.8267 43.2012 11.9297 44.457C11.0327 45.7127 10.1358 47.0582 9.23879 48.4036C8.88 49.0315 8.43152 49.7491 8.07273 50.377L7.44485 51.4533C7.35515 51.543 7.26545 51.7224 7.17576 51.9018L6.90667 52.44L6.63758 52.9782L6.45818 53.2473C6.45818 53.337 6.45818 53.4267 6.36848 53.5164L5.92 54.5927L5.47152 55.6691C5.38182 55.8485 5.29212 56.0279 5.20242 56.2073L5.02303 56.7455C4.57455 58.1806 4.12606 59.7055 4.12606 61.2303C4.03636 62.6655 4.48485 64.1903 5.29212 65.2667C5.74061 65.8945 6.36848 66.343 6.99636 66.7018C7.26545 66.7915 7.62424 66.9709 7.98303 67.0606C8.16242 67.1503 8.34182 67.1503 8.52121 67.24C8.61091 67.24 8.70061 67.24 8.70061 67.24C8.7903 67.24 8.88 67.24 8.9697 67.24C9.32848 67.3297 9.68727 67.5988 9.68727 67.9576C9.68727 68.4061 9.32848 68.6752 8.9697 68.6752C8.88 68.6752 8.88 68.6752 8.88 68.6752H8.7903C8.70061 68.6752 8.61091 68.5855 8.43152 68.5855C8.34182 68.5855 8.25212 68.4958 8.16242 68.4958C7.98303 68.4061 7.71394 68.4061 7.53455 68.3164C7.44485 68.2267 7.35515 68.2267 7.26545 68.137C7.17576 68.137 6.99636 68.0473 6.90667 68.0473C6.81697 67.9576 6.72727 67.9576 6.63758 67.8679L6.36848 67.6885C6.0097 67.5091 5.65091 67.24 5.29212 66.9709C5.11273 66.7915 5.02303 66.7018 4.84364 66.5224C4.75394 66.4327 4.66424 66.343 4.57455 66.2533C4.57455 66.1636 4.48485 66.0739 4.39515 65.9842C3.85697 65.3564 3.49818 64.5491 3.22909 63.6521C3.22909 63.4727 3.13939 63.2933 3.13939 63.0242L3.0497 62.3964C3.0497 62.0376 2.96 61.5891 2.96 61.1406C3.0497 59.5261 3.49818 57.9115 3.94667 56.3867L4.21576 55.7588C4.30545 55.5794 4.30545 55.4 4.39515 55.2206L4.84364 54.1442L5.38182 53.0679C5.47152 52.8885 5.47152 52.7988 5.56121 52.7091L5.65091 52.5297L5.92 51.9915L6.27879 51.4533C6.36848 51.2739 6.45818 51.0945 6.54788 50.9151L7.08606 49.8388C7.53455 49.1212 7.98303 48.4933 8.43152 47.7758C9.23879 46.4303 10.1358 45.1745 11.1224 43.8291C12.0194 42.5733 13.0061 41.3176 13.9927 40.0618C14.9794 38.8061 16.0558 37.64 17.1321 36.3842C18.1188 35.2182 19.2848 34.0521 20.3612 32.9758C21.5273 31.8097 22.6933 30.7333 23.8594 29.657C24.4873 29.1188 25.1152 28.5806 25.743 28.1321C26.4606 27.6836 27.0885 27.1455 27.8061 26.7867C28.1648 26.5176 28.5236 26.3382 28.9721 26.1588C29.3309 25.9794 29.7794 25.8897 30.2279 25.8C30.497 25.7103 30.7661 25.7103 31.0352 25.7103C31.3042 25.7103 31.5733 25.8 31.8424 25.8897C32.2012 26.0691 32.4703 26.2485 32.6497 26.4279C32.8291 26.697 33.0085 26.9661 33.0982 27.2351C33.2776 27.6836 33.3673 28.2218 33.457 28.6703C33.457 29.1188 33.457 29.5673 33.3673 29.9261C33.2776 30.823 33.1879 31.6303 32.9188 32.4376C32.7394 33.2448 32.56 34.0521 32.2909 34.7697C32.0218 35.577 31.7527 36.2945 31.4836 37.1018L29.7794 41.497C29.2412 43.0218 28.703 44.457 28.1648 45.9818C27.6267 47.417 27.0885 48.9418 26.5503 50.377C26.0121 51.9018 25.5636 53.4267 25.0255 54.8618C24.577 56.3867 24.1285 57.9115 23.7697 59.4364C23.3212 60.8715 22.9624 62.3964 22.783 63.9212C22.6036 64.7285 22.5139 65.4461 22.5139 66.1636C22.4242 66.9709 22.4242 67.6885 22.5139 68.4061C22.5139 69.1236 22.6933 69.8412 22.8727 70.4691C23.1418 71.0073 23.5006 71.5455 23.9491 71.9042C24.3976 72.263 25.0255 72.4424 25.6533 72.6218H25.743C25.8327 72.6218 25.8327 72.6218 25.8327 72.6218H25.9224C25.9224 72.6218 25.9224 72.6218 26.0121 72.6218C26.7297 70.6485 27.7164 68.6752 28.7927 66.7915C30.2279 64.4594 31.8424 62.217 33.8158 60.3333C34.8921 59.257 36.0582 58.36 37.2242 57.5527C38.1212 55.9382 38.9285 54.3236 39.8255 52.7091C40.543 51.3636 41.2606 49.9285 42.0679 48.4933C42.8752 47.1479 43.6824 45.7127 44.4897 44.3673C45.297 43.0218 46.1939 41.6764 47.2703 40.4206C47.5394 40.1515 47.8982 39.7927 48.1673 39.5236C48.4364 39.2545 48.7952 38.8958 49.1539 38.7164C49.3333 38.537 49.6024 38.4473 49.7818 38.3576C49.9612 38.2679 50.2303 38.1782 50.4994 38.0885C50.7685 37.9988 51.0376 37.9988 51.3067 37.9988C51.5758 37.9988 51.8448 38.0885 52.1139 38.1782C52.4727 38.3576 52.6521 38.537 52.8315 38.8061C52.9212 38.9855 53.0109 39.1648 53.1006 39.4339C53.28 39.7927 53.28 40.1515 53.3697 40.5103C53.4594 41.3176 53.4594 41.9455 53.4594 42.663C53.3697 44.0982 53.1903 45.4436 53.0109 46.7891C52.6521 49.2109 52.2036 51.543 51.6655 53.8752C52.0242 53.8752 52.383 53.8752 52.6521 53.9648C53.3697 54.0545 54.0873 54.1442 54.7152 54.2339C55.0739 54.3236 55.343 54.4133 55.7018 54.503C55.8812 54.503 56.0606 54.5927 56.1503 54.6824C56.3297 54.7721 56.5091 54.8618 56.5988 55.0412ZM29.7794 67.3297C28.8824 68.8545 28.1648 70.4691 27.4473 72.0836C27.9855 71.7248 28.4339 71.2764 28.8824 70.8279C29.4206 70.2897 29.8691 69.6618 30.3176 69.0339C31.3042 67.8679 32.1115 66.5224 32.9188 65.177C33.7261 63.8315 34.5333 62.4861 35.3406 61.0509C35.52 60.6921 35.7891 60.2436 35.9685 59.8848C35.52 60.2436 35.0715 60.6921 34.623 61.1406C32.7394 62.9345 31.1248 65.0873 29.7794 67.3297ZM46.9115 61.8582C47.7188 59.5261 48.5261 57.1042 49.2436 54.6824C49.0642 54.6824 48.8848 54.7721 48.6158 54.7721C48.3467 54.7721 47.9879 54.7721 47.6291 54.8618C47.36 54.8618 47.0012 54.8618 46.6424 54.9515C46.3733 54.9515 46.0145 55.0412 45.7455 55.1309C45.3867 55.2206 45.0279 55.2206 44.7588 55.3103C44.1309 55.4897 43.503 55.6691 42.8752 55.8485C42.2473 56.1176 41.6194 56.3867 40.9915 56.6558C40.2739 56.9248 39.5564 57.3733 38.8388 57.8218C38.1212 59.1673 37.4933 60.5127 36.6861 61.8582C35.9685 63.2933 35.2509 64.6388 34.4436 66.0739C33.6364 67.4194 32.7394 68.7648 31.7527 70.1103C31.3042 70.8279 30.7661 71.4558 30.2279 72.0836C29.6897 72.7115 29.0618 73.2497 28.2545 73.7879C27.8958 74.057 27.4473 74.2364 26.9988 74.4158C26.8194 74.5055 26.64 74.5055 26.5503 74.5055C26.5503 74.5055 26.5503 74.5952 26.4606 74.5952C26.1018 75.8509 25.743 77.1067 25.3842 78.4521C25.1152 79.7079 24.8461 81.0533 24.6667 82.3091C24.4873 83.6545 24.3079 84.9103 24.3079 86.2558C24.2182 87.6012 24.3079 88.9467 24.3976 90.2024C24.4873 90.8303 24.6667 91.4582 24.7564 92.0861C24.9358 92.7139 25.1152 93.3418 25.3842 93.7903C25.743 94.3285 26.0121 94.8667 26.4606 95.1358C26.8194 95.4048 27.2679 95.4945 27.8061 95.4048C28.0752 95.4048 28.2545 95.3152 28.5236 95.1358C28.7927 95.0461 29.0618 94.8667 29.3309 94.6873C29.7794 94.3285 30.2279 93.9697 30.6764 93.5212C31.663 92.6242 32.4703 91.5479 33.2776 90.5612C34.0849 89.4848 34.8024 88.4085 35.52 87.3321C36.2376 86.1661 36.8655 85 37.4933 83.8339C38.7491 81.5018 39.9152 79.1697 41.0812 76.7479C42.1576 74.3261 43.1442 71.8145 44.1309 69.3927C45.1176 66.8812 46.0145 64.3697 46.9115 61.8582ZM51.3067 46.52C51.5758 45.1745 51.7552 43.9188 51.8448 42.5733C51.9345 41.9455 51.9345 41.3176 51.8448 40.6897C51.8448 40.4206 51.7552 40.1515 51.6655 39.8824C51.6655 39.7927 51.5758 39.703 51.5758 39.6133C51.5758 39.5236 51.4861 39.5236 51.4861 39.5236C51.3067 39.4339 51.0376 39.4339 50.8582 39.4339C50.6788 39.5236 50.4994 39.5236 50.4097 39.6133C50.2303 39.703 50.1406 39.7927 49.9612 39.8824C49.6921 40.0618 49.423 40.2412 49.1539 40.5103C48.8848 40.7794 48.6158 41.0485 48.3467 41.3176C47.8982 41.9455 47.4497 42.5733 47.0012 43.2012C46.5527 43.8291 46.1042 44.457 45.6558 45.0848C44.0412 47.7758 42.5164 50.5564 41.0812 53.4267C40.6327 54.3236 40.1842 55.2206 39.7358 56.1176C40.0048 55.9382 40.2739 55.7588 40.6327 55.6691C43.1442 54.503 45.8352 53.8752 48.6158 53.7855C48.8848 53.7855 49.2436 53.7855 49.5127 53.7855C49.8715 52.6194 50.1406 51.543 50.4994 50.377C50.7685 49.1212 51.1273 47.7758 51.3067 46.52ZM63.0808 70.3794C63.4396 70.2 63.5293 70.5588 63.4396 70.7382C62.6323 71.8145 61.9147 72.7115 60.8384 73.9673C59.762 75.223 58.5959 76.2994 57.4299 77.017C56.3535 77.7345 55.3669 78.0036 54.4699 77.9139C54.2905 77.9139 54.2008 77.9139 54.1111 77.8242H54.0214C52.945 77.1067 52.3172 75.9406 52.2275 74.3261C52.2275 72.8012 52.4069 71.1867 52.945 69.4824C53.3935 67.7782 53.9317 66.2533 54.4699 64.9976C54.8287 64.4594 55.0978 64.1903 55.4566 64.1903C55.8153 64.28 56.0844 64.4594 56.2638 64.9079C56.4432 65.3564 56.4432 65.9842 56.2638 66.6121C55.9947 67.4194 55.8153 68.137 55.4566 68.9442C55.2772 69.6618 55.0081 70.3794 54.8287 71.097C54.739 71.1867 54.739 71.2764 54.739 71.4558C54.2905 72.6218 54.1111 73.6982 54.2008 74.8642C54.2905 75.5818 54.6493 76.0303 55.0978 76.12C55.6359 76.2994 56.0844 76.12 56.5329 76.0303C57.699 75.6715 60.1208 73.8776 61.5559 71.9939C62.1838 71.2764 62.9911 70.3794 63.0808 70.3794ZM56.2638 61.8582C55.905 61.6788 55.7256 61.4097 55.7256 61.0509C55.7256 60.6024 55.9947 60.2436 56.4432 59.7952C56.9814 59.4364 57.3402 59.3467 57.699 59.4364C57.9681 59.5261 58.1475 59.8848 58.1475 60.2436C58.1475 60.6024 57.9681 61.0509 57.5196 61.4994H57.4299C56.9814 61.7685 56.6226 61.9479 56.3535 61.8582C56.2638 61.8582 56.2638 61.8582 56.2638 61.8582ZM78.5381 69.6618C78.6278 69.7515 78.7175 69.9309 78.7175 70.1103C78.8072 70.2897 78.7175 70.4691 78.6278 70.6485C77.9102 71.9042 77.103 72.9806 76.0266 73.9673C75.0399 74.9539 73.9636 75.5818 72.8872 75.9406C71.8108 76.2097 70.8242 75.9406 70.0169 75.1333C69.2096 74.3261 68.7611 72.8012 68.5817 70.5588V70.3794C68.5817 70.2 68.5817 70.0206 68.5817 69.7515C68.5817 69.4824 68.5817 69.2133 68.5817 69.0339C68.492 68.7648 68.492 68.6752 68.492 68.6752C68.1333 68.4958 67.7745 68.8545 67.2363 69.7515C66.6981 70.7382 66.0702 71.9042 65.4423 73.3394C64.9042 74.5055 64.366 75.4921 63.8278 76.3891C63.3793 77.2861 63.0205 77.7345 62.6617 77.9139C62.6617 78.0036 62.572 78.0036 62.572 78.0036H62.4823C61.9442 77.9139 61.5854 77.6448 61.406 77.1964C61.3163 76.6582 61.2266 76.12 61.3163 75.4024C61.3163 74.7745 61.406 74.2364 61.4957 73.7879C61.4957 73.6982 61.4957 73.6085 61.4957 73.6085C61.9442 70.9176 62.572 68.4061 63.2896 65.8945C63.3793 65.8048 63.3793 65.8048 63.3793 65.8048C63.3793 65.7152 63.3793 65.7152 63.3793 65.7152V65.6255V65.5358C63.469 65.5358 63.469 65.5358 63.469 65.5358C63.469 65.177 63.5587 64.9079 63.7381 64.6388C64.0072 64.3697 64.1866 64.28 64.4557 64.28C64.7248 64.1903 64.9939 64.3697 65.263 64.7285C65.3526 64.8182 65.3526 64.9976 65.4423 65.177C65.4423 65.3564 65.4423 65.5358 65.4423 65.7152C65.3526 66.4327 65.263 67.1503 65.0836 67.8679L64.9042 68.6752C64.7248 69.4824 64.4557 70.6485 64.0969 72.0836C63.9175 73.2497 63.7381 74.1467 63.5587 74.9539C63.6484 74.6848 63.8278 74.3261 64.0969 73.8776C64.7248 72.5321 65.4423 71.0073 66.3393 69.4824C67.2363 67.9576 67.9539 66.9709 68.5817 66.6121C69.1199 66.343 69.6581 66.5224 70.1066 66.8812C70.5551 67.3297 70.8242 67.8679 70.9139 68.5855C71.0036 69.3927 71.0036 70.2 70.9139 70.9176C70.7345 71.9042 70.8242 72.8012 71.0036 73.6982C71.452 74.4158 71.9902 74.7745 72.7078 74.5952C73.4254 74.5055 74.143 74.1467 74.7708 73.6085C75.4884 73.0703 76.1163 72.4424 76.4751 71.9939C77.103 71.3661 77.5514 70.6485 77.9102 69.8412C77.9999 69.7515 78.0896 69.6618 78.1793 69.6618C78.269 69.5721 78.3587 69.5721 78.5381 69.6618ZM87.9598 70.0206C87.9598 70.1103 88.0495 70.3794 88.0495 70.4691C87.9598 70.5588 87.6907 70.8279 87.1525 70.9176C86.0762 71.1867 84.641 71.9042 83.1162 72.8012C81.5913 73.7879 80.1562 74.6848 79.0798 75.4024C78.3622 75.9406 77.824 76.2097 77.6446 76.2994C77.5549 76.3891 77.3755 76.3891 77.2858 76.3891C76.5683 78.9903 75.9404 81.5915 75.4022 84.1927C75.2228 84.6412 75.1331 85.1794 75.0434 85.6279C74.9537 86.0764 74.5052 86.3455 74.0568 86.2558C73.6083 86.1661 73.3392 85.7176 73.5186 85.2691C73.698 84.2824 73.9671 83.2958 74.2362 82.3091C77.0168 72.0836 80.0665 61.8582 83.3852 51.8121C84.1028 49.3903 84.9101 46.9685 85.8071 44.5467C85.9865 44.1879 86.2555 43.9188 86.6143 43.9188C86.9731 43.9188 87.2422 44.0085 87.4216 44.2776C87.6907 44.5467 87.6907 44.9055 87.601 45.3539C86.0762 49.0315 84.641 52.7988 83.3852 56.5661C81.8604 60.8715 80.5149 65.177 79.2592 69.3927L79.3489 69.303C79.5283 69.0339 79.7077 68.7648 79.8871 68.4958C80.4252 67.6885 81.0531 66.8812 81.681 66.1636C82.3089 65.3564 83.1162 64.7285 83.9234 64.3697C84.3719 64.1903 84.641 64.28 84.9101 64.5491C85.0895 64.8182 85.2689 65.177 85.1792 65.5358C85.1792 65.8945 84.9101 66.0739 84.5513 66.2533C83.5646 66.9709 82.578 67.9576 81.7707 69.303C80.8737 70.5588 80.0665 71.8145 79.4386 72.8909V72.9806C79.4386 72.9806 79.3489 72.9806 79.3489 73.0703C79.3489 73.0703 79.3489 73.16 79.2592 73.16C79.0798 73.5188 78.9901 73.8776 78.8107 74.1467C78.9901 74.057 79.2592 73.9673 79.4386 73.7879H79.5283C80.0665 73.5188 80.6046 73.16 81.1428 72.8909C81.7707 72.5321 82.3986 72.1733 83.1162 71.8145C84.2822 71.097 86.0762 70.1103 87.4216 69.8412C87.6907 69.7515 87.8701 69.9309 87.9598 70.0206ZM103.728 70.4691C103.728 70.5588 103.817 70.6485 103.728 70.8279C103.638 71.0073 103.548 71.1867 103.458 71.3661C102.92 72.263 102.382 73.3394 101.665 74.3261C100.947 75.4024 100.229 76.2994 99.4221 76.9273C98.5251 77.6448 97.6281 77.8242 96.6415 77.5552C95.9239 77.1067 95.296 76.3891 94.9372 75.4024C94.5784 74.5055 94.3094 73.4291 94.2197 72.3527C94.13 72.1733 94.13 72.1733 94.0403 72.0836C93.9506 72.0836 93.8609 72.0836 93.8609 72.1733V72.263C93.5918 72.7115 93.4124 73.16 93.1433 73.6982C92.6948 74.6848 92.2463 75.5818 91.7081 76.3891C91.2597 77.2861 90.5421 77.7345 89.7348 77.9139C88.7481 77.7345 88.21 77.017 88.1203 75.6715C88.1203 74.3261 88.3894 72.8012 88.9275 71.097C89.4657 69.3927 90.1833 67.8679 90.9906 66.6121C91.7978 65.2667 92.5154 64.5491 93.233 64.3697C93.5918 64.1903 94.0403 64.28 94.4887 64.5491C94.9372 64.7285 95.296 65.0873 95.4754 65.5358C95.7445 65.9842 95.7445 66.5224 95.5651 66.9709C95.8342 67.24 96.0136 67.5988 95.9239 68.137C95.6548 70.3794 95.5651 72.3527 95.8342 73.9673C96.1033 75.5818 96.7312 76.4788 97.5384 76.5685C97.6281 76.5685 97.7178 76.5685 97.7178 76.5685C98.6148 76.5685 99.8706 75.5818 101.395 73.5188C102.023 72.6218 102.651 71.5455 103.189 70.4691C103.189 70.2897 103.279 70.2 103.458 70.2C103.548 70.2897 103.638 70.2897 103.728 70.4691ZM93.9506 66.9709C93.9506 66.9709 93.9506 66.8812 93.9506 66.7915C93.8609 66.7915 93.8609 66.7915 93.6815 66.8812C92.8742 67.4194 92.0669 68.6752 91.4391 70.3794C90.9009 71.9042 90.4524 73.3394 90.273 74.5055C90.9009 73.4291 91.5287 72.263 92.0669 70.9176C92.6051 69.5721 93.233 68.3164 93.9506 67.1503C93.9506 67.1503 93.9506 67.0606 93.9506 66.9709Z" fill="white"/>
</svg>
