<svg width="201" height="80" viewBox="0 0 201 80" fill="none" xmlns="http://www.w3.org/2000/svg">
<g clip-path="url(#clip0_53_510)">
<path d="M122.557 51.2727C122.557 53.1761 122.196 54.7955 121.474 56.1307C120.759 57.4659 119.781 58.4858 118.543 59.1903C117.31 59.8892 115.923 60.2386 114.384 60.2386C112.832 60.2386 111.44 59.8864 110.207 59.1818C108.974 58.4773 108 57.4574 107.284 56.1222C106.568 54.7869 106.21 53.1705 106.21 51.2727C106.21 49.3693 106.568 47.75 107.284 46.4148C108 45.0795 108.974 44.0625 110.207 43.3636C111.44 42.6591 112.832 42.3068 114.384 42.3068C115.923 42.3068 117.31 42.6591 118.543 43.3636C119.781 44.0625 120.759 45.0795 121.474 46.4148C122.196 47.75 122.557 49.3693 122.557 51.2727ZM118.815 51.2727C118.815 50.0398 118.631 49 118.261 48.1534C117.898 47.3068 117.384 46.6648 116.719 46.2273C116.054 45.7898 115.276 45.571 114.384 45.571C113.491 45.571 112.713 45.7898 112.048 46.2273C111.384 46.6648 110.866 47.3068 110.497 48.1534C110.134 49 109.952 50.0398 109.952 51.2727C109.952 52.5057 110.134 53.5455 110.497 54.392C110.866 55.2386 111.384 55.8807 112.048 56.3182C112.713 56.7557 113.491 56.9744 114.384 56.9744C115.276 56.9744 116.054 56.7557 116.719 56.3182C117.384 55.8807 117.898 55.2386 118.261 54.392C118.631 53.5455 118.815 52.5057 118.815 51.2727ZM128.512 56.233L128.521 51.8778H129.049L133.242 46.9091H137.41L131.776 53.4886H130.915L128.512 56.233ZM125.222 60V42.5455H128.853V60H125.222ZM133.404 60L129.552 54.2983L131.972 51.733L137.657 60H133.404ZM144.618 60.2557C143.271 60.2557 142.112 59.983 141.141 59.4375C140.175 58.8864 139.43 58.108 138.908 57.1023C138.385 56.0909 138.124 54.8949 138.124 53.5142C138.124 52.1676 138.385 50.9858 138.908 49.9688C139.43 48.9517 140.166 48.1591 141.115 47.5909C142.07 47.0227 143.189 46.7386 144.473 46.7386C145.337 46.7386 146.141 46.8778 146.885 47.1562C147.635 47.429 148.288 47.8409 148.845 48.392C149.408 48.9432 149.845 49.6364 150.158 50.4716C150.47 51.3011 150.626 52.2727 150.626 53.3864V54.3835H139.572V52.1335H147.209C147.209 51.6108 147.095 51.1477 146.868 50.7443C146.641 50.3409 146.325 50.0256 145.922 49.7983C145.524 49.5653 145.061 49.4489 144.533 49.4489C143.982 49.4489 143.493 49.5767 143.067 49.8324C142.646 50.0824 142.317 50.4205 142.078 50.8466C141.839 51.267 141.717 51.7358 141.712 52.2528V54.392C141.712 55.0398 141.831 55.5994 142.07 56.071C142.314 56.5426 142.658 56.9062 143.101 57.1619C143.544 57.4176 144.07 57.5455 144.678 57.5455C145.081 57.5455 145.45 57.4886 145.786 57.375C146.121 57.2614 146.408 57.0909 146.646 56.8636C146.885 56.6364 147.067 56.358 147.192 56.0284L150.55 56.25C150.379 57.0568 150.03 57.7614 149.501 58.3636C148.979 58.9602 148.303 59.4261 147.473 59.7614C146.649 60.0909 145.697 60.2557 144.618 60.2557ZM156.626 42.5455V60H152.996V42.5455H156.626ZM165.501 60.2557C164.154 60.2557 162.995 59.983 162.023 59.4375C161.058 58.8864 160.313 58.108 159.79 57.1023C159.268 56.0909 159.006 54.8949 159.006 53.5142C159.006 52.1676 159.268 50.9858 159.79 49.9688C160.313 48.9517 161.049 48.1591 161.998 47.5909C162.952 47.0227 164.072 46.7386 165.356 46.7386C166.219 46.7386 167.023 46.8778 167.768 47.1562C168.518 47.429 169.171 47.8409 169.728 48.392C170.29 48.9432 170.728 49.6364 171.04 50.4716C171.353 51.3011 171.509 52.2727 171.509 53.3864V54.3835H160.455V52.1335H168.092C168.092 51.6108 167.978 51.1477 167.751 50.7443C167.523 50.3409 167.208 50.0256 166.805 49.7983C166.407 49.5653 165.944 49.4489 165.415 49.4489C164.864 49.4489 164.376 49.5767 163.95 49.8324C163.529 50.0824 163.2 50.4205 162.961 50.8466C162.722 51.267 162.6 51.7358 162.594 52.2528V54.392C162.594 55.0398 162.714 55.5994 162.952 56.071C163.197 56.5426 163.54 56.9062 163.984 57.1619C164.427 57.4176 164.952 57.5455 165.56 57.5455C165.964 57.5455 166.333 57.4886 166.668 57.375C167.004 57.2614 167.29 57.0909 167.529 56.8636C167.768 56.6364 167.95 56.358 168.075 56.0284L171.433 56.25C171.262 57.0568 170.913 57.7614 170.384 58.3636C169.862 58.9602 169.185 59.4261 168.356 59.7614C167.532 60.0909 166.58 60.2557 165.501 60.2557ZM175.768 64.9091C175.308 64.9091 174.876 64.8722 174.473 64.7983C174.075 64.7301 173.746 64.642 173.484 64.5341L174.303 61.8239C174.729 61.9545 175.112 62.0256 175.453 62.0369C175.8 62.0483 176.098 61.9688 176.348 61.7983C176.604 61.6278 176.811 61.3381 176.97 60.929L177.183 60.375L172.487 46.9091H176.305L179.016 56.5227H179.152L181.888 46.9091H185.732L180.643 61.4148C180.399 62.1193 180.067 62.733 179.646 63.2557C179.232 63.7841 178.706 64.1903 178.07 64.4744C177.433 64.7642 176.666 64.9091 175.768 64.9091ZM193.134 60.2557C191.787 60.2557 190.628 59.983 189.656 59.4375C188.69 58.8864 187.946 58.108 187.423 57.1023C186.901 56.0909 186.639 54.8949 186.639 53.5142C186.639 52.1676 186.901 50.9858 187.423 49.9688C187.946 48.9517 188.682 48.1591 189.631 47.5909C190.585 47.0227 191.705 46.7386 192.989 46.7386C193.852 46.7386 194.656 46.8778 195.401 47.1562C196.151 47.429 196.804 47.8409 197.361 48.392C197.923 48.9432 198.361 49.6364 198.673 50.4716C198.986 51.3011 199.142 52.2727 199.142 53.3864V54.3835H188.088V52.1335H195.724C195.724 51.6108 195.611 51.1477 195.384 50.7443C195.156 50.3409 194.841 50.0256 194.438 49.7983C194.04 49.5653 193.577 49.4489 193.048 49.4489C192.497 49.4489 192.009 49.5767 191.582 49.8324C191.162 50.0824 190.832 50.4205 190.594 50.8466C190.355 51.267 190.233 51.7358 190.227 52.2528V54.392C190.227 55.0398 190.347 55.5994 190.585 56.071C190.83 56.5426 191.173 56.9062 191.616 57.1619C192.06 57.4176 192.585 57.5455 193.193 57.5455C193.597 57.5455 193.966 57.4886 194.301 57.375C194.636 57.2614 194.923 57.0909 195.162 56.8636C195.401 56.6364 195.582 56.358 195.707 56.0284L199.065 56.25C198.895 57.0568 198.545 57.7614 198.017 58.3636C197.494 58.9602 196.818 59.4261 195.989 59.7614C195.165 60.0909 194.213 60.2557 193.134 60.2557Z" fill="#0E0F1A"/>
<path d="M56.5988 36.0412C56.6885 36.0412 56.6885 36.1309 56.5988 36.1309C56.24 36.3103 55.8812 36.3103 55.5224 36.3103C55.2533 36.2206 54.8945 36.1309 54.5358 36.1309C53.9079 35.9515 53.28 35.8618 52.5624 35.8618C52.2036 35.7721 51.8448 35.7721 51.4861 35.7721C50.1406 41.0642 48.5261 46.2667 46.5527 51.2897C44.5794 56.3127 42.2473 61.2461 39.4667 66C38.0315 68.3321 36.5067 70.5745 34.8024 72.7273C33.9055 73.8036 32.9188 74.7903 31.9321 75.777C31.663 75.9564 31.3939 76.2255 31.1248 76.4048C30.8558 76.6739 30.497 76.8533 30.2279 77.0327C29.8691 77.3018 29.6 77.4812 29.2412 77.6606C28.8824 77.7503 28.4339 77.9297 28.0752 77.9297C27.6267 78.0194 27.1782 78.0194 26.7297 77.9297C26.2812 77.84 25.9224 77.5709 25.5636 77.3018C25.2048 77.1224 24.9358 76.7636 24.6667 76.4945C24.4873 76.1358 24.3079 75.777 24.1285 75.5079C23.5006 74.1624 23.2315 72.7273 23.0521 71.3818C22.9624 69.9467 22.9624 68.6012 22.9624 67.2558C23.0521 65.8206 23.2315 64.4752 23.4109 63.1297C23.7697 60.5285 24.4873 58.017 25.2945 55.5055C24.8461 55.4158 24.4873 55.3261 24.0388 55.2364C23.5903 55.057 23.1418 54.7879 22.6933 54.5188C22.3345 54.2497 21.9758 53.8909 21.7067 53.4424C21.3479 53.0836 21.1685 52.6352 20.9891 52.1867C20.8097 51.8279 20.6303 51.3794 20.5406 50.9309C20.4509 50.4824 20.3612 50.0339 20.3612 49.5855C20.2715 48.7782 20.2715 47.8812 20.3612 47.0739C20.3612 46.2667 20.4509 45.4594 20.5406 44.6521C21.0788 41.3333 21.8861 38.2836 22.8727 35.2339C23.3212 33.7091 23.8594 32.1842 24.3079 30.6594C24.8461 29.1345 25.3842 27.6097 25.9224 26.1745C26.5503 24.6497 27.0885 23.2145 27.7164 21.6897C27.9855 20.9721 28.2545 20.2545 28.6133 19.537L29.5103 17.2945C30.1382 15.8594 30.6764 14.4242 31.1248 12.9891C31.3042 12.1818 31.4836 11.4642 31.5733 10.7467C31.663 10.3879 31.663 10.0291 31.663 9.6703C31.663 9.40121 31.663 9.04242 31.5733 8.86303C31.4836 8.68363 31.4836 8.59394 31.3939 8.50424C31.3939 8.50424 31.3042 8.41454 31.2145 8.41454C31.0352 8.32485 30.7661 8.23515 30.497 8.32485C30.2279 8.32485 29.8691 8.41454 29.5103 8.59394C29.1515 8.68363 28.8824 8.86303 28.5236 9.04242C27.8061 9.40121 27.1782 9.76 26.5503 10.2085C25.9224 10.657 25.2945 11.1055 24.6667 11.6436C24.1285 12.0921 23.5006 12.6303 22.8727 13.1685C22.3345 13.7067 21.7964 14.2448 21.1685 14.783C20.0921 15.8594 18.9261 17.0255 17.9394 18.1915C16.863 19.3576 15.7867 20.5236 14.8 21.6897C13.8133 22.9455 12.8267 24.2012 11.9297 25.457C11.0327 26.7127 10.1358 28.0582 9.23879 29.4036C8.88 30.0315 8.43152 30.7491 8.07273 31.377L7.44485 32.4533C7.35515 32.543 7.26545 32.7224 7.17576 32.9018L6.90667 33.44L6.63758 33.9782L6.45818 34.2473C6.45818 34.337 6.45818 34.4267 6.36848 34.5164L5.92 35.5927L5.47152 36.6691C5.38182 36.8485 5.29212 37.0279 5.20242 37.2073L5.02303 37.7455C4.57455 39.1806 4.12606 40.7055 4.12606 42.2303C4.03636 43.6655 4.48485 45.1903 5.29212 46.2667C5.74061 46.8945 6.36848 47.343 6.99636 47.7018C7.26545 47.7915 7.62424 47.9709 7.98303 48.0606C8.16242 48.1503 8.34182 48.1503 8.52121 48.24C8.61091 48.24 8.70061 48.24 8.70061 48.24C8.7903 48.24 8.88 48.24 8.9697 48.24C9.32848 48.3297 9.68727 48.5988 9.68727 48.9576C9.68727 49.4061 9.32848 49.6752 8.9697 49.6752C8.88 49.6752 8.88 49.6752 8.88 49.6752H8.7903C8.70061 49.6752 8.61091 49.5855 8.43152 49.5855C8.34182 49.5855 8.25212 49.4958 8.16242 49.4958C7.98303 49.4061 7.71394 49.4061 7.53455 49.3164C7.44485 49.2267 7.35515 49.2267 7.26545 49.137C7.17576 49.137 6.99636 49.0473 6.90667 49.0473C6.81697 48.9576 6.72727 48.9576 6.63758 48.8679L6.36848 48.6885C6.0097 48.5091 5.65091 48.24 5.29212 47.9709C5.11273 47.7915 5.02303 47.7018 4.84364 47.5224C4.75394 47.4327 4.66424 47.343 4.57455 47.2533C4.57455 47.1636 4.48485 47.0739 4.39515 46.9842C3.85697 46.3564 3.49818 45.5491 3.22909 44.6521C3.22909 44.4727 3.13939 44.2933 3.13939 44.0242L3.0497 43.3964C3.0497 43.0376 2.96 42.5891 2.96 42.1406C3.0497 40.5261 3.49818 38.9115 3.94667 37.3867L4.21576 36.7588C4.30545 36.5794 4.30545 36.4 4.39515 36.2206L4.84364 35.1442L5.38182 34.0679C5.47152 33.8885 5.47152 33.7988 5.56121 33.7091L5.65091 33.5297L5.92 32.9915L6.27879 32.4533C6.36848 32.2739 6.45818 32.0945 6.54788 31.9151L7.08606 30.8388C7.53455 30.1212 7.98303 29.4933 8.43152 28.7758C9.23879 27.4303 10.1358 26.1745 11.1224 24.8291C12.0194 23.5733 13.0061 22.3176 13.9927 21.0618C14.9794 19.8061 16.0558 18.64 17.1321 17.3842C18.1188 16.2182 19.2848 15.0521 20.3612 13.9758C21.5273 12.8097 22.6933 11.7333 23.8594 10.657C24.4873 10.1188 25.1152 9.58061 25.743 9.13212C26.4606 8.68363 27.0885 8.14545 27.8061 7.78666C28.1648 7.51758 28.5236 7.33818 28.9721 7.15879C29.3309 6.97939 29.7794 6.88969 30.2279 6.8C30.497 6.7103 30.7661 6.7103 31.0352 6.7103C31.3042 6.7103 31.5733 6.8 31.8424 6.88969C32.2012 7.06909 32.4703 7.24848 32.6497 7.42787C32.8291 7.69697 33.0085 7.96606 33.0982 8.23515C33.2776 8.68363 33.3673 9.22182 33.457 9.6703C33.457 10.1188 33.457 10.5673 33.3673 10.9261C33.2776 11.823 33.1879 12.6303 32.9188 13.4376C32.7394 14.2448 32.56 15.0521 32.2909 15.7697C32.0218 16.577 31.7527 17.2945 31.4836 18.1018L29.7794 22.497C29.2412 24.0218 28.703 25.457 28.1648 26.9818C27.6267 28.417 27.0885 29.9418 26.5503 31.377C26.0121 32.9018 25.5636 34.4267 25.0255 35.8618C24.577 37.3867 24.1285 38.9115 23.7697 40.4364C23.3212 41.8715 22.9624 43.3964 22.783 44.9212C22.6036 45.7285 22.5139 46.4461 22.5139 47.1636C22.4242 47.9709 22.4242 48.6885 22.5139 49.4061C22.5139 50.1236 22.6933 50.8412 22.8727 51.4691C23.1418 52.0073 23.5006 52.5455 23.9491 52.9042C24.3976 53.263 25.0255 53.4424 25.6533 53.6218H25.743C25.8327 53.6218 25.8327 53.6218 25.8327 53.6218H25.9224C25.9224 53.6218 25.9224 53.6218 26.0121 53.6218C26.7297 51.6485 27.7164 49.6752 28.7927 47.7915C30.2279 45.4594 31.8424 43.217 33.8158 41.3333C34.8921 40.257 36.0582 39.36 37.2242 38.5527C38.1212 36.9382 38.9285 35.3236 39.8255 33.7091C40.543 32.3636 41.2606 30.9285 42.0679 29.4933C42.8752 28.1479 43.6824 26.7127 44.4897 25.3673C45.297 24.0218 46.1939 22.6764 47.2703 21.4206C47.5394 21.1515 47.8982 20.7927 48.1673 20.5236C48.4364 20.2545 48.7952 19.8958 49.1539 19.7164C49.3333 19.537 49.6024 19.4473 49.7818 19.3576C49.9612 19.2679 50.2303 19.1782 50.4994 19.0885C50.7685 18.9988 51.0376 18.9988 51.3067 18.9988C51.5758 18.9988 51.8448 19.0885 52.1139 19.1782C52.4727 19.3576 52.6521 19.537 52.8315 19.8061C52.9212 19.9855 53.0109 20.1648 53.1006 20.4339C53.28 20.7927 53.28 21.1515 53.3697 21.5103C53.4594 22.3176 53.4594 22.9455 53.4594 23.663C53.3697 25.0982 53.1903 26.4436 53.0109 27.7891C52.6521 30.2109 52.2036 32.543 51.6655 34.8752C52.0242 34.8752 52.383 34.8752 52.6521 34.9648C53.3697 35.0545 54.0873 35.1442 54.7152 35.2339C55.0739 35.3236 55.343 35.4133 55.7018 35.503C55.8812 35.503 56.0606 35.5927 56.1503 35.6824C56.3297 35.7721 56.5091 35.8618 56.5988 36.0412ZM29.7794 48.3297C28.8824 49.8545 28.1648 51.4691 27.4473 53.0836C27.9855 52.7248 28.4339 52.2764 28.8824 51.8279C29.4206 51.2897 29.8691 50.6618 30.3176 50.0339C31.3042 48.8679 32.1115 47.5224 32.9188 46.177C33.7261 44.8315 34.5333 43.4861 35.3406 42.0509C35.52 41.6921 35.7891 41.2436 35.9685 40.8848C35.52 41.2436 35.0715 41.6921 34.623 42.1406C32.7394 43.9345 31.1248 46.0873 29.7794 48.3297ZM46.9115 42.8582C47.7188 40.5261 48.5261 38.1042 49.2436 35.6824C49.0642 35.6824 48.8848 35.7721 48.6158 35.7721C48.3467 35.7721 47.9879 35.7721 47.6291 35.8618C47.36 35.8618 47.0012 35.8618 46.6424 35.9515C46.3733 35.9515 46.0145 36.0412 45.7455 36.1309C45.3867 36.2206 45.0279 36.2206 44.7588 36.3103C44.1309 36.4897 43.503 36.6691 42.8752 36.8485C42.2473 37.1176 41.6194 37.3867 40.9915 37.6558C40.2739 37.9248 39.5564 38.3733 38.8388 38.8218C38.1212 40.1673 37.4933 41.5127 36.6861 42.8582C35.9685 44.2933 35.2509 45.6388 34.4436 47.0739C33.6364 48.4194 32.7394 49.7648 31.7527 51.1103C31.3042 51.8279 30.7661 52.4558 30.2279 53.0836C29.6897 53.7115 29.0618 54.2497 28.2545 54.7879C27.8958 55.057 27.4473 55.2364 26.9988 55.4158C26.8194 55.5055 26.64 55.5055 26.5503 55.5055C26.5503 55.5055 26.5503 55.5952 26.4606 55.5952C26.1018 56.8509 25.743 58.1067 25.3842 59.4521C25.1152 60.7079 24.8461 62.0533 24.6667 63.3091C24.4873 64.6545 24.3079 65.9103 24.3079 67.2558C24.2182 68.6012 24.3079 69.9467 24.3976 71.2024C24.4873 71.8303 24.6667 72.4582 24.7564 73.0861C24.9358 73.7139 25.1152 74.3418 25.3842 74.7903C25.743 75.3285 26.0121 75.8667 26.4606 76.1358C26.8194 76.4048 27.2679 76.4945 27.8061 76.4048C28.0752 76.4048 28.2545 76.3152 28.5236 76.1358C28.7927 76.0461 29.0618 75.8667 29.3309 75.6873C29.7794 75.3285 30.2279 74.9697 30.6764 74.5212C31.663 73.6242 32.4703 72.5479 33.2776 71.5612C34.0849 70.4848 34.8024 69.4085 35.52 68.3321C36.2376 67.1661 36.8655 66 37.4933 64.8339C38.7491 62.5018 39.9152 60.1697 41.0812 57.7479C42.1576 55.3261 43.1442 52.8145 44.1309 50.3927C45.1176 47.8812 46.0145 45.3697 46.9115 42.8582ZM51.3067 27.52C51.5758 26.1745 51.7552 24.9188 51.8448 23.5733C51.9345 22.9455 51.9345 22.3176 51.8448 21.6897C51.8448 21.4206 51.7552 21.1515 51.6655 20.8824C51.6655 20.7927 51.5758 20.703 51.5758 20.6133C51.5758 20.5236 51.4861 20.5236 51.4861 20.5236C51.3067 20.4339 51.0376 20.4339 50.8582 20.4339C50.6788 20.5236 50.4994 20.5236 50.4097 20.6133C50.2303 20.703 50.1406 20.7927 49.9612 20.8824C49.6921 21.0618 49.423 21.2412 49.1539 21.5103C48.8848 21.7794 48.6158 22.0485 48.3467 22.3176C47.8982 22.9455 47.4497 23.5733 47.0012 24.2012C46.5527 24.8291 46.1042 25.457 45.6558 26.0848C44.0412 28.7758 42.5164 31.5564 41.0812 34.4267C40.6327 35.3236 40.1842 36.2206 39.7358 37.1176C40.0048 36.9382 40.2739 36.7588 40.6327 36.6691C43.1442 35.503 45.8352 34.8752 48.6158 34.7855C48.8848 34.7855 49.2436 34.7855 49.5127 34.7855C49.8715 33.6194 50.1406 32.543 50.4994 31.377C50.7685 30.1212 51.1273 28.7758 51.3067 27.52ZM63.0808 51.3794C63.4396 51.2 63.5293 51.5588 63.4396 51.7382C62.6323 52.8145 61.9147 53.7115 60.8384 54.9673C59.762 56.223 58.5959 57.2994 57.4299 58.017C56.3535 58.7345 55.3669 59.0036 54.4699 58.9139C54.2905 58.9139 54.2008 58.9139 54.1111 58.8242H54.0214C52.945 58.1067 52.3172 56.9406 52.2275 55.3261C52.2275 53.8012 52.4069 52.1867 52.945 50.4824C53.3935 48.7782 53.9317 47.2533 54.4699 45.9976C54.8287 45.4594 55.0978 45.1903 55.4566 45.1903C55.8153 45.28 56.0844 45.4594 56.2638 45.9079C56.4432 46.3564 56.4432 46.9842 56.2638 47.6121C55.9947 48.4194 55.8153 49.137 55.4566 49.9442C55.2772 50.6618 55.0081 51.3794 54.8287 52.097C54.739 52.1867 54.739 52.2764 54.739 52.4558C54.2905 53.6218 54.1111 54.6982 54.2008 55.8642C54.2905 56.5818 54.6493 57.0303 55.0978 57.12C55.6359 57.2994 56.0844 57.12 56.5329 57.0303C57.699 56.6715 60.1208 54.8776 61.5559 52.9939C62.1838 52.2764 62.9911 51.3794 63.0808 51.3794ZM56.2638 42.8582C55.905 42.6788 55.7256 42.4097 55.7256 42.0509C55.7256 41.6024 55.9947 41.2436 56.4432 40.7952C56.9814 40.4364 57.3402 40.3467 57.699 40.4364C57.9681 40.5261 58.1475 40.8848 58.1475 41.2436C58.1475 41.6024 57.9681 42.0509 57.5196 42.4994H57.4299C56.9814 42.7685 56.6226 42.9479 56.3535 42.8582C56.2638 42.8582 56.2638 42.8582 56.2638 42.8582ZM78.5381 50.6618C78.6278 50.7515 78.7175 50.9309 78.7175 51.1103C78.8072 51.2897 78.7175 51.4691 78.6278 51.6485C77.9102 52.9042 77.103 53.9806 76.0266 54.9673C75.0399 55.9539 73.9636 56.5818 72.8872 56.9406C71.8108 57.2097 70.8242 56.9406 70.0169 56.1333C69.2096 55.3261 68.7611 53.8012 68.5817 51.5588V51.3794C68.5817 51.2 68.5817 51.0206 68.5817 50.7515C68.5817 50.4824 68.5817 50.2133 68.5817 50.0339C68.492 49.7648 68.492 49.6752 68.492 49.6752C68.1333 49.4958 67.7745 49.8545 67.2363 50.7515C66.6981 51.7382 66.0702 52.9042 65.4423 54.3394C64.9042 55.5055 64.366 56.4921 63.8278 57.3891C63.3793 58.2861 63.0205 58.7345 62.6617 58.9139C62.6617 59.0036 62.572 59.0036 62.572 59.0036H62.4823C61.9442 58.9139 61.5854 58.6448 61.406 58.1964C61.3163 57.6582 61.2266 57.12 61.3163 56.4024C61.3163 55.7745 61.406 55.2364 61.4957 54.7879C61.4957 54.6982 61.4957 54.6085 61.4957 54.6085C61.9442 51.9176 62.572 49.4061 63.2896 46.8945C63.3793 46.8048 63.3793 46.8048 63.3793 46.8048C63.3793 46.7152 63.3793 46.7152 63.3793 46.7152V46.6255V46.5358C63.469 46.5358 63.469 46.5358 63.469 46.5358C63.469 46.177 63.5587 45.9079 63.7381 45.6388C64.0072 45.3697 64.1866 45.28 64.4557 45.28C64.7248 45.1903 64.9939 45.3697 65.263 45.7285C65.3526 45.8182 65.3526 45.9976 65.4423 46.177C65.4423 46.3564 65.4423 46.5358 65.4423 46.7152C65.3526 47.4327 65.263 48.1503 65.0836 48.8679L64.9042 49.6752C64.7248 50.4824 64.4557 51.6485 64.0969 53.0836C63.9175 54.2497 63.7381 55.1467 63.5587 55.9539C63.6484 55.6848 63.8278 55.3261 64.0969 54.8776C64.7248 53.5321 65.4423 52.0073 66.3393 50.4824C67.2363 48.9576 67.9539 47.9709 68.5817 47.6121C69.1199 47.343 69.6581 47.5224 70.1066 47.8812C70.5551 48.3297 70.8242 48.8679 70.9139 49.5855C71.0036 50.3927 71.0036 51.2 70.9139 51.9176C70.7345 52.9042 70.8242 53.8012 71.0036 54.6982C71.452 55.4158 71.9902 55.7745 72.7078 55.5952C73.4254 55.5055 74.143 55.1467 74.7708 54.6085C75.4884 54.0703 76.1163 53.4424 76.4751 52.9939C77.103 52.3661 77.5514 51.6485 77.9102 50.8412C77.9999 50.7515 78.0896 50.6618 78.1793 50.6618C78.269 50.5721 78.3587 50.5721 78.5381 50.6618ZM87.9598 51.0206C87.9598 51.1103 88.0495 51.3794 88.0495 51.4691C87.9598 51.5588 87.6907 51.8279 87.1525 51.9176C86.0762 52.1867 84.641 52.9042 83.1162 53.8012C81.5913 54.7879 80.1562 55.6848 79.0798 56.4024C78.3622 56.9406 77.824 57.2097 77.6446 57.2994C77.5549 57.3891 77.3755 57.3891 77.2858 57.3891C76.5683 59.9903 75.9404 62.5915 75.4022 65.1927C75.2228 65.6412 75.1331 66.1794 75.0434 66.6279C74.9537 67.0764 74.5052 67.3455 74.0568 67.2558C73.6083 67.1661 73.3392 66.7176 73.5186 66.2691C73.698 65.2824 73.9671 64.2958 74.2362 63.3091C77.0168 53.0836 80.0665 42.8582 83.3852 32.8121C84.1028 30.3903 84.9101 27.9685 85.8071 25.5467C85.9865 25.1879 86.2555 24.9188 86.6143 24.9188C86.9731 24.9188 87.2422 25.0085 87.4216 25.2776C87.6907 25.5467 87.6907 25.9055 87.601 26.3539C86.0762 30.0315 84.641 33.7988 83.3852 37.5661C81.8604 41.8715 80.5149 46.177 79.2592 50.3927L79.3489 50.303C79.5283 50.0339 79.7077 49.7648 79.8871 49.4958C80.4252 48.6885 81.0531 47.8812 81.681 47.1636C82.3089 46.3564 83.1162 45.7285 83.9234 45.3697C84.3719 45.1903 84.641 45.28 84.9101 45.5491C85.0895 45.8182 85.2689 46.177 85.1792 46.5358C85.1792 46.8945 84.9101 47.0739 84.5513 47.2533C83.5646 47.9709 82.578 48.9576 81.7707 50.303C80.8737 51.5588 80.0665 52.8145 79.4386 53.8909V53.9806C79.4386 53.9806 79.3489 53.9806 79.3489 54.0703C79.3489 54.0703 79.3489 54.16 79.2592 54.16C79.0798 54.5188 78.9901 54.8776 78.8107 55.1467C78.9901 55.057 79.2592 54.9673 79.4386 54.7879H79.5283C80.0665 54.5188 80.6046 54.16 81.1428 53.8909C81.7707 53.5321 82.3986 53.1733 83.1162 52.8145C84.2822 52.097 86.0762 51.1103 87.4216 50.8412C87.6907 50.7515 87.8701 50.9309 87.9598 51.0206ZM103.728 51.4691C103.728 51.5588 103.817 51.6485 103.728 51.8279C103.638 52.0073 103.548 52.1867 103.458 52.3661C102.92 53.263 102.382 54.3394 101.665 55.3261C100.947 56.4024 100.229 57.2994 99.4221 57.9273C98.5251 58.6448 97.6281 58.8242 96.6415 58.5552C95.9239 58.1067 95.296 57.3891 94.9372 56.4024C94.5784 55.5055 94.3094 54.4291 94.2197 53.3527C94.13 53.1733 94.13 53.1733 94.0403 53.0836C93.9506 53.0836 93.8609 53.0836 93.8609 53.1733V53.263C93.5918 53.7115 93.4124 54.16 93.1433 54.6982C92.6948 55.6848 92.2463 56.5818 91.7081 57.3891C91.2597 58.2861 90.5421 58.7345 89.7348 58.9139C88.7481 58.7345 88.21 58.017 88.1203 56.6715C88.1203 55.3261 88.3894 53.8012 88.9275 52.097C89.4657 50.3927 90.1833 48.8679 90.9906 47.6121C91.7978 46.2667 92.5154 45.5491 93.233 45.3697C93.5918 45.1903 94.0403 45.28 94.4887 45.5491C94.9372 45.7285 95.296 46.0873 95.4754 46.5358C95.7445 46.9842 95.7445 47.5224 95.5651 47.9709C95.8342 48.24 96.0136 48.5988 95.9239 49.137C95.6548 51.3794 95.5651 53.3527 95.8342 54.9673C96.1033 56.5818 96.7312 57.4788 97.5384 57.5685C97.6281 57.5685 97.7178 57.5685 97.7178 57.5685C98.6148 57.5685 99.8706 56.5818 101.395 54.5188C102.023 53.6218 102.651 52.5455 103.189 51.4691C103.189 51.2897 103.279 51.2 103.458 51.2C103.548 51.2897 103.638 51.2897 103.728 51.4691ZM93.9506 47.9709C93.9506 47.9709 93.9506 47.8812 93.9506 47.7915C93.8609 47.7915 93.8609 47.7915 93.6815 47.8812C92.8742 48.4194 92.0669 49.6752 91.4391 51.3794C90.9009 52.9042 90.4524 54.3394 90.273 55.5055C90.9009 54.4291 91.5287 53.263 92.0669 51.9176C92.6051 50.5721 93.233 49.3164 93.9506 48.1503C93.9506 48.1503 93.9506 48.0606 93.9506 47.9709Z" fill="#6204E7"/>
</g>
<defs>
<clipPath id="clip0_53_510">
<rect width="201" height="80" fill="white"/>
</clipPath>
</defs>
</svg>
