<svg width="37" height="36" viewBox="0 0 37 36" fill="none" xmlns="http://www.w3.org/2000/svg">
<rect x="1.5" y="1" width="34" height="34" rx="17" stroke="#69727D" stroke-width="2"/>
<path d="M18.6507 9.53125C23.4319 9.53125 27.3694 13.4688 27.3694 18.25C27.3694 23.0664 23.4319 26.9688 18.6507 26.9688C13.8343 26.9688 9.93192 23.0664 9.93192 18.25C9.93192 13.4688 13.8343 9.53125 18.6507 9.53125ZM22.1663 22.3633C22.4475 22.3633 22.6936 22.1523 22.6936 21.8359C22.6936 21.5195 22.5882 21.3789 22.3772 21.2383C19.846 19.7617 16.928 19.6914 14.0452 20.3242C13.764 20.3945 13.553 20.5703 13.553 20.9219C13.553 21.2031 13.764 21.4844 14.1155 21.4844C14.221 21.4844 14.3968 21.4141 14.5374 21.3789C17.0686 20.8867 19.5999 20.9219 21.8147 22.2578C21.9202 22.3281 22.0257 22.3633 22.1663 22.3633ZM23.1155 20.0781C23.5022 20.0781 23.7835 19.7617 23.8186 19.375C23.8186 19.0938 23.678 18.8477 23.3968 18.707C21.6741 17.6523 19.4593 17.0898 17.1741 17.0898C15.7327 17.0898 14.7132 17.3008 13.7288 17.582C13.3772 17.6875 13.2015 17.9336 13.2015 18.2852C13.2015 18.6719 13.5179 18.9883 13.8694 18.9883C14.0452 18.9883 14.1155 18.918 14.2913 18.8828C17.2093 18.1094 20.4788 18.6367 22.6936 19.9375C22.7991 19.9727 22.9397 20.0781 23.1155 20.0781ZM24.2054 17.4062C24.6272 17.4062 25.014 17.0547 25.014 16.5625C25.014 16.1406 24.8382 15.9297 24.5569 15.7891C22.6233 14.6289 19.9163 14.1016 17.3499 14.1016C15.8382 14.1016 14.4671 14.2773 13.2366 14.6289C12.9202 14.7344 12.6038 14.9805 12.6038 15.4727C12.6038 15.9297 12.9554 16.3164 13.4124 16.3164C13.5882 16.3164 13.764 16.2461 13.8694 16.2109C16.7874 15.4023 21.2522 15.7539 23.7483 17.2656C23.9241 17.3359 24.0296 17.4062 24.2054 17.4062Z" fill="white"/>
</svg>
