<svg width="37" height="36" viewBox="0 0 37 36" fill="none" xmlns="http://www.w3.org/2000/svg">
<rect x="1.5" y="1" width="34" height="34" rx="17" stroke="#69727D" stroke-width="2"/>
<path d="M25.7898 14.5938C25.7898 14.7695 25.7898 14.9102 25.7898 15.0859C25.7898 19.9727 22.0984 25.5625 15.3133 25.5625C13.2039 25.5625 11.2703 24.9648 9.65313 23.9102C9.93438 23.9453 10.2156 23.9805 10.532 23.9805C12.2547 23.9805 13.8367 23.3828 15.1023 22.3984C13.4852 22.3633 12.1141 21.3086 11.657 19.832C11.9031 19.8672 12.1141 19.9023 12.3602 19.9023C12.6766 19.9023 13.0281 19.832 13.3094 19.7617C11.6219 19.4102 10.3563 17.9336 10.3563 16.1406V16.1055C10.8484 16.3867 11.4461 16.5273 12.0438 16.5625C11.0242 15.8945 10.3914 14.7695 10.3914 13.5039C10.3914 12.8008 10.5672 12.168 10.8836 11.6406C12.7117 13.8555 15.4539 15.332 18.5125 15.5078C18.4422 15.2266 18.407 14.9453 18.407 14.6641C18.407 12.625 20.0594 10.9727 22.0984 10.9727C23.1531 10.9727 24.1023 11.3945 24.8055 12.1328C25.6141 11.957 26.4227 11.6406 27.1258 11.2188C26.8445 12.0977 26.282 12.8008 25.5086 13.2578C26.2469 13.1875 26.9852 12.9766 27.618 12.6953C27.1258 13.4336 26.493 14.0664 25.7898 14.5938Z" fill="white"/>
</svg>
