<svg width="143" height="90" viewBox="0 0 143 90" fill="none" xmlns="http://www.w3.org/2000/svg">
<path d="M99.3488 146.377L89.5368 138.378C73.9568 125.678 51.1159 127.638 37.925 142.808L29.6175 152.361C25.5859 156.997 18.0056 153.445 18.9845 147.378L21.0014 134.877C24.2037 115.027 11.0867 96.2146 -8.63853 92.3695L-21.0613 89.9479C-27.0899 88.7727 -27.8051 80.4283 -22.0648 78.2429L-10.2359 73.7399C8.54641 66.5898 18.2703 45.8176 11.7363 26.8031L7.62118 14.8281C5.62415 9.01668 12.4887 4.22444 17.2506 8.10596L27.0626 16.1042C42.6426 28.8043 65.4835 26.844 78.6748 11.6746L86.9823 2.12126C91.0139 -2.51496 98.5941 1.03724 97.6153 7.10445L95.5984 19.6057C92.3961 39.4559 105.513 58.2678 125.238 62.1133L137.661 64.535C143.69 65.7102 144.405 74.0546 138.665 76.2399L126.836 80.743C108.053 87.8931 98.3295 108.665 104.863 127.68L108.979 139.655C110.975 145.466 104.111 150.258 99.3488 146.377Z" fill="#DAC2FF"/>
</svg>
