<svg width="37" height="36" viewBox="0 0 37 36" fill="none" xmlns="http://www.w3.org/2000/svg">
<rect x="1.5" y="1" width="34" height="34" rx="17" stroke="#69727D" stroke-width="2"/>
<path d="M27.8418 13.6445C28.2637 15.1211 28.2637 18.2852 28.2637 18.2852C28.2637 18.2852 28.2637 21.4141 27.8418 22.9258C27.6309 23.7695 26.9629 24.4023 26.1543 24.6133C24.6426 25 18.666 25 18.666 25C18.666 25 12.6543 25 11.1426 24.6133C10.334 24.4023 9.66602 23.7695 9.45508 22.9258C9.0332 21.4141 9.0332 18.2852 9.0332 18.2852C9.0332 18.2852 9.0332 15.1211 9.45508 13.6445C9.66602 12.8008 10.334 12.1328 11.1426 11.9219C12.6543 11.5 18.666 11.5 18.666 11.5C18.666 11.5 24.6426 11.5 26.1543 11.9219C26.9629 12.1328 27.6309 12.8008 27.8418 13.6445ZM16.6973 21.1328L21.6895 18.2852L16.6973 15.4375V21.1328Z" fill="white"/>
</svg>
